<?xml version="1.0" encoding="utf-8"?>
<!-- Generator: Adobe Illustrator 22.1.0, SVG Export Plug-In . SVG Version: 6.00 Build 0)  -->
<svg version="1.1" id="图层_1" xmlns="http://www.w3.org/2000/svg" xmlns:xlink="http://www.w3.org/1999/xlink" x="0px" y="0px"
	 viewBox="0 0 40 40" style="enable-background:new 0 0 40 40;" xml:space="preserve">
<g>
	<g>
		<g>
			<path style="fill:#231815;" d="M20,40C8.9,40,0,31.1,0,20S8.9,0,20,0s20,8.9,20,20S31.1,40,20,40z M20,2.4
				c-9.6,0-17.6,8-17.6,17.6s8,17.6,17.6,17.6s17.6-8,17.6-17.6S29.6,2.4,20,2.4z"/>
		</g>
		<g>
			<path style="fill:#231815;" d="M21.4,27.1c-0.2,0-0.7,0-0.9-0.2L16,22.4c-1.2-1.2-1.2-3.3,0-4.5l4.5-4.5c0.5-0.5,1.2-0.5,1.6,0
				c0.5,0.5,0.5,1.2,0,1.6l-4.5,4.5c-0.2,0.2-0.2,0.7,0,1.2l4.5,4.5c0.5,0.5,0.5,1.2,0,1.6C21.9,27.1,21.6,27.1,21.4,27.1z"/>
		</g>
	</g>
</g>
</svg>
